<?xml version="1.0" encoding="UTF-8" standalone="no"?>
<!-- Created with Inkscape (http://www.inkscape.org/) -->

<svg
   width="38.086044mm"
   height="38.086563mm"
   viewBox="0 0 38.086044 38.086563"
   version="1.1"
   id="svg60261"
   inkscape:version="1.1.2 (0a00cf5339, 2022-02-04)"
   sodipodi:docname="discord-logo.svg"
   xmlns:inkscape="http://www.inkscape.org/namespaces/inkscape"
   xmlns:sodipodi="http://sodipodi.sourceforge.net/DTD/sodipodi-0.dtd"
   xmlns="http://www.w3.org/2000/svg"
   xmlns:svg="http://www.w3.org/2000/svg">
  <sodipodi:namedview
     id="namedview60263"
     pagecolor="#ffffff"
     bordercolor="#666666"
     borderopacity="1.0"
     inkscape:pageshadow="2"
     inkscape:pageopacity="0.0"
     inkscape:pagecheckerboard="0"
     inkscape:document-units="mm"
     showgrid="false"
     inkscape:zoom="1.9552971"
     inkscape:cx="-84.641871"
     inkscape:cy="117.62919"
     inkscape:window-width="1856"
     inkscape:window-height="1011"
     inkscape:window-x="0"
     inkscape:window-y="0"
     inkscape:window-maximized="1"
     inkscape:current-layer="layer1" />
  <defs
     id="defs60258" />
  <g
     inkscape:label="Layer 1"
     inkscape:groupmode="layer"
     id="layer1"
     transform="translate(-170.19556,-76.757301)">
    <path
       id="rect844"
       style="opacity:1;fill:#000000;fill-opacity:1;stroke:none;stroke-width:1.88976"
       d="M 187.0918,0.62304688 V 144.57227 H 331.03906 V 0.62304688 Z M 272.81055,36.751953 c 6.56417,1.726303 13.22781,3.318249 18.86914,6.328125 13.78821,21.868245 15.3852,38.442581 13.8125,53.642578 -12.12431,8.013694 -17.33579,9.290844 -23.54688,11.720704 l -5.08398,-7.99024 7.58594,-3.851558 -1.79688,-1.457031 c -18.63972,8.009199 -33.47537,5.319609 -47.375,0 l -1.43945,1.154297 7.49023,4.259762 -4.74805,7.88477 c -11.73571,-3.36692 -17.95125,-7.66602 -23.91992,-12.00586 -1.80302,-16.839254 0.79234,-34.313124 13.70313,-53.273438 4.72898,-2.25142 7.97598,-4.673255 19.63476,-6.128906 l 2.09961,5.146485 c 5.51301,-0.918017 11.22272,-1.730615 21.40235,-0.201172 z M 243.4043,66.960938 a 8.6502181,9.5253477 0 0 0 -8.65039,9.527343 8.6502181,9.5253477 0 0 0 8.65039,9.525391 8.6502181,9.5253477 0 0 0 8.65039,-9.525391 8.6502181,9.5253477 0 0 0 -8.65039,-9.527343 z m 31.38086,0 a 8.6502181,9.5253477 0 0 0 -8.65039,9.527343 8.6502181,9.5253477 0 0 0 8.65039,9.525391 8.6502181,9.5253477 0 0 0 8.65234,-9.525391 8.6502181,9.5253477 0 0 0 -8.65234,-9.527343 z"
       transform="matrix(0.26458333,0,0,0.26458333,120.69419,76.592453)" />
  </g>
</svg>
