<?xml version="1.0" encoding="UTF-8" standalone="no"?>
<!-- Created with Inkscape (http://www.inkscape.org/) -->

<svg
   width="38.323116mm"
   height="38.429821mm"
   viewBox="0 0 38.323116 38.429821"
   version="1.1"
   id="svg5"
   inkscape:version="1.1.2 (0a00cf5339, 2022-02-04)"
   sodipodi:docname="facebook-logo.svg"
   xmlns:inkscape="http://www.inkscape.org/namespaces/inkscape"
   xmlns:sodipodi="http://sodipodi.sourceforge.net/DTD/sodipodi-0.dtd"
   xmlns="http://www.w3.org/2000/svg"
   xmlns:svg="http://www.w3.org/2000/svg">
  <sodipodi:namedview
     id="namedview7"
     pagecolor="#ffffff"
     bordercolor="#666666"
     borderopacity="1.0"
     inkscape:pageshadow="2"
     inkscape:pageopacity="0.0"
     inkscape:pagecheckerboard="0"
     inkscape:document-units="mm"
     showgrid="false"
     inkscape:zoom="3.9105941"
     inkscape:cx="77.60969"
     inkscape:cy="90.523329"
     inkscape:window-width="1856"
     inkscape:window-height="1011"
     inkscape:window-x="0"
     inkscape:window-y="0"
     inkscape:window-maximized="1"
     inkscape:current-layer="layer1" />
  <defs
     id="defs2" />
  <g
     inkscape:label="Layer 1"
     inkscape:groupmode="layer"
     id="layer1"
     transform="translate(-91.022714,-32.736956)">
    <path
       id="rect888"
       style="opacity:1;fill:#000000;stroke-width:0.638938"
       d="m 98.793543,32.736956 c -4.305039,0 -7.770829,3.465789 -7.770829,7.770823 v 22.888176 c 0,4.305034 3.46579,7.770823 7.770829,7.770823 h 8.202597 V 57.357874 h -4.8719 v -5.48026 h 4.8719 v -3.9216 c 0.14667,-5.310649 3.0594,-7.462503 7.89001,-7.423901 1.00257,0.008 2.08815,0.110867 3.24834,0.298879 l -0.0855,4.765822 c -1.6722,0.02527 -4.47855,-0.486653 -5.24191,2.3592 v 3.9216 h 5.04475 l -0.58715,5.48026 h -4.4576 v 13.808904 h 8.76793 c 4.30503,0 7.77082,-3.465789 7.77082,-7.770823 V 40.507779 c 0,-4.305034 -3.46579,-7.770823 -7.77082,-7.770823 z" />
  </g>
</svg>
