<?xml version="1.0" encoding="UTF-8" standalone="no"?>
<!-- Created with Inkscape (http://www.inkscape.org/) -->

<svg
   width="38.338409mm"
   height="38.338402mm"
   viewBox="0 0 38.338409 38.338402"
   version="1.1"
   id="svg68112"
   inkscape:version="1.1.2 (0a00cf5339, 2022-02-04)"
   sodipodi:docname="fickr-logo.svg"
   xmlns:inkscape="http://www.inkscape.org/namespaces/inkscape"
   xmlns:sodipodi="http://sodipodi.sourceforge.net/DTD/sodipodi-0.dtd"
   xmlns="http://www.w3.org/2000/svg"
   xmlns:svg="http://www.w3.org/2000/svg">
  <sodipodi:namedview
     id="namedview68114"
     pagecolor="#ffffff"
     bordercolor="#666666"
     borderopacity="1.0"
     inkscape:pageshadow="2"
     inkscape:pageopacity="0.0"
     inkscape:pagecheckerboard="0"
     inkscape:document-units="mm"
     showgrid="false"
     inkscape:zoom="1.9552971"
     inkscape:cx="137.31929"
     inkscape:cy="127.85781"
     inkscape:window-width="1856"
     inkscape:window-height="1011"
     inkscape:window-x="0"
     inkscape:window-y="0"
     inkscape:window-maximized="1"
     inkscape:current-layer="layer1" />
  <defs
     id="defs68109" />
  <g
     inkscape:label="Layer 1"
     inkscape:groupmode="layer"
     id="layer1"
     transform="translate(-83.014382,-55.657417)">
    <path
       id="rect68251"
       style="opacity:1;stroke-width:0.340786"
       d="m 89.091617,55.657417 c -3.366825,0 -6.077235,2.710411 -6.077235,6.077236 v 26.183599 c 0,3.366823 2.71041,6.077568 6.077235,6.077568 h 13.091973 13.09196 c 3.36683,0 6.07724,-2.710745 6.07724,-6.077568 V 61.734653 c 0,-3.366825 -2.71041,-6.077236 -6.07724,-6.077236 h -13.09196 z m 0.680242,0.995734 h 12.411731 v 0.51018 35.326581 0.509845 H 89.771859 c -3.19188,0 -5.761408,-2.569848 -5.761408,-5.761741 V 62.414893 c 0,-3.191885 2.569528,-5.761742 5.761408,-5.761742 z m 5.32411,12.889292 a 5.2226091,5.2226091 0 0 0 -5.222608,5.22261 5.2226091,5.2226091 0 0 0 5.222608,5.222609 5.2226091,5.2226091 0 0 0 5.222611,-5.222609 5.2226091,5.2226091 0 0 0 -5.222611,-5.22261 z m 14.055421,0 a 5.2226091,5.2226091 0 0 1 5.22261,5.22261 5.2226091,5.2226091 0 0 1 -5.22261,5.222609 5.2226091,5.2226091 0 0 1 -5.22261,-5.222609 5.2226091,5.2226091 0 0 1 5.22261,-5.22261 z" />
  </g>
</svg>
