<?xml version="1.0" encoding="UTF-8" standalone="no"?>
<!-- Created with Inkscape (http://www.inkscape.org/) -->

<svg
   width="38.338226mm"
   height="38.338226mm"
   viewBox="0 0 38.338226 38.338227"
   version="1.1"
   id="svg68112"
   inkscape:version="1.1.2 (0a00cf5339, 2022-02-04)"
   sodipodi:docname="fickr-logo.svg"
   xmlns:inkscape="http://www.inkscape.org/namespaces/inkscape"
   xmlns:sodipodi="http://sodipodi.sourceforge.net/DTD/sodipodi-0.dtd"
   xmlns="http://www.w3.org/2000/svg"
   xmlns:svg="http://www.w3.org/2000/svg">
  <sodipodi:namedview
     id="namedview68114"
     pagecolor="#ffffff"
     bordercolor="#666666"
     borderopacity="1.0"
     inkscape:pageshadow="2"
     inkscape:pageopacity="0.0"
     inkscape:pagecheckerboard="0"
     inkscape:document-units="mm"
     showgrid="false"
     inkscape:zoom="0.97764855"
     inkscape:cx="35.288755"
     inkscape:cy="75.691822"
     inkscape:window-width="1856"
     inkscape:window-height="1011"
     inkscape:window-x="0"
     inkscape:window-y="0"
     inkscape:window-maximized="1"
     inkscape:current-layer="layer1" />
  <defs
     id="defs68109" />
  <g
     inkscape:label="Layer 1"
     inkscape:groupmode="layer"
     id="layer1"
     transform="translate(-205.08962,-55.657417)">
    <path
       id="path1174"
       style="fill:#000000;stroke-width:1.88976"
       d="m 461.38672,0 v 22.96875 1.755859 95.451171 1.75586 22.96875 h 22.96875 4.20703 45.27344 45.27539 4.20703 22.96875 V 121.93164 120.17578 24.724609 22.96875 0 h -22.96875 -4.20703 -45.27539 -45.27344 -4.20703 z m 25.53906,3.7636719 h 46.91016 v 1.9277343 133.5175738 1.92774 h -46.91016 c -12.0638,0 -21.77539,-9.71355 -21.77539,-21.77734 V 25.541016 c 0,-12.063818 9.71159,-21.7773441 21.77539,-21.7773441 z M 507.04883,52.478516 A 19.738995,19.738995 0 0 0 487.31055,72.21875 19.738995,19.738995 0 0 0 507.04883,91.957031 19.738995,19.738995 0 0 0 526.78711,72.21875 19.738995,19.738995 0 0 0 507.04883,52.478516 Z m 53.12305,0 A 19.738995,19.738995 0 0 1 579.91016,72.21875 19.738995,19.738995 0 0 1 560.17188,91.957031 19.738995,19.738995 0 0 1 540.43164,72.21875 19.738995,19.738995 0 0 1 560.17188,52.478516 Z"
       transform="matrix(0.26458333,0,0,0.26458333,83.014382,55.657417)" />
  </g>
</svg>
