<?xml version="1.0" encoding="UTF-8" standalone="no"?>
<!-- Created with Inkscape (http://www.inkscape.org/) -->

<svg
   width="38.390938mm"
   height="38.391457mm"
   viewBox="0 0 38.390937 38.391457"
   version="1.1"
   id="svg5"
   inkscape:version="1.1.2 (0a00cf5339, 2022-02-04)"
   sodipodi:docname="instagram-logo.svg"
   xmlns:inkscape="http://www.inkscape.org/namespaces/inkscape"
   xmlns:sodipodi="http://sodipodi.sourceforge.net/DTD/sodipodi-0.dtd"
   xmlns="http://www.w3.org/2000/svg"
   xmlns:svg="http://www.w3.org/2000/svg">
  <sodipodi:namedview
     id="namedview7"
     pagecolor="#ffffff"
     bordercolor="#666666"
     borderopacity="1.0"
     inkscape:pageshadow="2"
     inkscape:pageopacity="0.0"
     inkscape:pagecheckerboard="0"
     inkscape:document-units="mm"
     showgrid="false"
     inkscape:zoom="2.7652076"
     inkscape:cx="-56.957749"
     inkscape:cy="51.352383"
     inkscape:window-width="1856"
     inkscape:window-height="1011"
     inkscape:window-x="0"
     inkscape:window-y="0"
     inkscape:window-maximized="1"
     inkscape:current-layer="layer1" />
  <defs
     id="defs2" />
  <g
     inkscape:label="Layer 1"
     inkscape:groupmode="layer"
     id="layer1"
     transform="translate(-154.19117,-66.171832)">
    <path
       id="rect1398"
       style="fill:#000000;stroke-width:1.88976"
       d="M 186.96875,-0.87109375 V 144.23047 H 332.06836 V -0.87109375 Z M 237.47461,18.466797 h 44.08789 c 17.25407,0 31.14453,13.89047 31.14453,31.144531 v 44.136719 c 0,17.254053 -13.89046,31.144533 -31.14453,31.144533 h -44.08789 c -17.25407,0 -31.14453,-13.89048 -31.14453,-31.144533 V 49.611328 c 0,-17.254061 13.89046,-31.144531 31.14453,-31.144531 z m -0.39649,10.111328 c -11.43506,0 -20.64062,9.207444 -20.64062,20.642578 v 44.919922 c 0,11.435135 9.20556,20.640625 20.64062,20.640625 h 44.88282 c 11.43515,0 20.64062,-9.20549 20.64062,-20.640625 V 49.220703 c 0,-11.435134 -9.20547,-20.642578 -20.64062,-20.642578 z m 50.97266,9.802734 a 6.451859,6.451859 0 0 1 4.35938,1.886719 6.451859,6.451859 0 0 1 0,9.125 6.451859,6.451859 0 0 1 -9.125,0 6.451859,6.451859 0 0 1 0,-9.125 6.451859,6.451859 0 0 1 3.55273,-1.810547 6.451859,6.451859 0 0 1 1.21289,-0.07617 z m -28.53125,6.847657 A 26.451366,26.451366 0 0 1 285.9707,71.679688 26.451366,26.451366 0 0 1 259.51953,98.132812 26.451366,26.451366 0 0 1 233.06836,71.679688 26.451366,26.451366 0 0 1 259.51953,45.228516 Z m 0,9.519531 a 16.931727,16.931727 0 0 0 -16.93164,16.931641 16.931727,16.931727 0 0 0 16.93164,16.93164 16.931727,16.931727 0 0 0 16.93164,-16.93164 16.931727,16.931727 0 0 0 -16.93164,-16.931641 z"
       transform="matrix(0.26458333,0,0,0.26458333,104.72236,66.402309)" />
  </g>
</svg>
