<?xml version="1.0" encoding="UTF-8" standalone="no"?>
<!-- Created with Inkscape (http://www.inkscape.org/) -->

<svg
   width="38.361343mm"
   height="37.930695mm"
   viewBox="0 0 38.361343 37.930695"
   version="1.1"
   id="svg5"
   inkscape:version="1.1.2 (0a00cf5339, 2022-02-04)"
   sodipodi:docname="instagram-logo.svg"
   xmlns:inkscape="http://www.inkscape.org/namespaces/inkscape"
   xmlns:sodipodi="http://sodipodi.sourceforge.net/DTD/sodipodi-0.dtd"
   xmlns="http://www.w3.org/2000/svg"
   xmlns:svg="http://www.w3.org/2000/svg">
  <sodipodi:namedview
     id="namedview7"
     pagecolor="#ffffff"
     bordercolor="#666666"
     borderopacity="1.0"
     inkscape:pageshadow="2"
     inkscape:pageopacity="0.0"
     inkscape:pagecheckerboard="0"
     inkscape:document-units="mm"
     showgrid="false"
     inkscape:zoom="2.7652076"
     inkscape:cx="72.146482"
     inkscape:cy="50.62911"
     inkscape:window-width="1856"
     inkscape:window-height="1011"
     inkscape:window-x="0"
     inkscape:window-y="0"
     inkscape:window-maximized="1"
     inkscape:current-layer="layer1" />
  <defs
     id="defs2" />
  <g
     inkscape:label="Layer 1"
     inkscape:groupmode="layer"
     id="layer1"
     transform="translate(-104.72236,-66.402309)">
    <g
       id="g2602"
       transform="matrix(0.84776542,0,0,0.84776542,18.862325,12.995909)"
       style="fill:#000000;fill-opacity:1">
      <path
         id="rect888"
         style="opacity:1;fill:#000000;stroke-width:2;fill-opacity:1"
         d="m 432.35742,238.09766 c -27.46448,0 -49.57422,22.10974 -49.57422,49.57422 v 69.95507 c 0,27.46448 22.10974,49.57422 49.57422,49.57422 h 71.87305 c 27.46448,0 49.57617,-22.10974 49.57617,-49.57422 v -69.95507 c 0,-27.46448 -22.11169,-49.57422 -49.57617,-49.57422 z m 9.9336,21.7832 h 52.00586 c 20.35239,0 36.73632,16.38393 36.73632,36.73633 v 52.0625 c 0,20.35239 -16.38393,36.73828 -36.73632,36.73828 h -52.00586 c -20.3524,0 -36.73633,-16.38589 -36.73633,-36.73828 v -52.0625 c 0,-20.3524 16.38393,-36.73633 36.73633,-36.73633 z"
         transform="scale(0.26458333)" />
      <path
         id="rect1441"
         style="opacity:1;fill:#000000;stroke-width:1.23231;fill-opacity:1"
         d="m 441.82422,271.80859 c -13.48856,0 -24.34766,10.8591 -24.34766,24.34766 v 52.98633 c 0,13.48856 10.8591,24.34765 24.34766,24.34765 h 52.9414 c 13.48856,0 24.34766,-10.85909 24.34766,-24.34765 v -52.98633 c 0,-13.48856 -10.8591,-24.34766 -24.34766,-24.34766 z m 58.69531,11.65235 a 7.6104301,7.6104301 0 0 1 6.57227,2.13476 7.6104301,7.6104301 0 0 1 0,10.76368 7.6104301,7.6104301 0 0 1 -10.76368,0 7.6104301,7.6104301 0 0 1 0,-10.76368 7.6104301,7.6104301 0 0 1 4.19141,-2.13476 z m -32.22461,7.98633 a 31.20128,31.20128 0 0 1 31.20117,31.20117 31.20128,31.20128 0 0 1 -31.20117,31.20312 31.20128,31.20128 0 0 1 -31.20117,-31.20312 31.20128,31.20128 0 0 1 31.20117,-31.20117 z"
         transform="scale(0.26458333)" />
      <circle
         style="opacity:1;fill:#000000;stroke-width:0.373957;fill-opacity:1"
         id="path1793"
         cx="123.90303"
         cy="85.367653"
         r="5.284307" />
    </g>
  </g>
</svg>
