<?xml version="1.0" encoding="UTF-8" standalone="no"?>
<!-- Created with Inkscape (http://www.inkscape.org/) -->

<svg
   width="38.368198mm"
   height="38.368202mm"
   viewBox="0 0 38.368198 38.368203"
   version="1.1"
   id="svg2673"
   inkscape:version="1.1.2 (0a00cf5339, 2022-02-04)"
   sodipodi:docname="linkedin-logo.svg"
   xmlns:inkscape="http://www.inkscape.org/namespaces/inkscape"
   xmlns:sodipodi="http://sodipodi.sourceforge.net/DTD/sodipodi-0.dtd"
   xmlns="http://www.w3.org/2000/svg"
   xmlns:svg="http://www.w3.org/2000/svg">
  <sodipodi:namedview
     id="namedview2675"
     pagecolor="#ffffff"
     bordercolor="#666666"
     borderopacity="1.0"
     inkscape:pageshadow="2"
     inkscape:pageopacity="0.0"
     inkscape:pagecheckerboard="0"
     inkscape:document-units="mm"
     showgrid="false"
     inkscape:zoom="2.7652076"
     inkscape:cx="-18.62428"
     inkscape:cy="93.663854"
     inkscape:window-width="1856"
     inkscape:window-height="1011"
     inkscape:window-x="0"
     inkscape:window-y="0"
     inkscape:window-maximized="1"
     inkscape:current-layer="layer1" />
  <defs
     id="defs2670" />
  <g
     inkscape:label="Layer 1"
     inkscape:groupmode="layer"
     id="layer1"
     transform="translate(-126.87184,-55.815715)">
    <path
       id="rect1061"
       style="fill:#000000;stroke-width:1.88976"
       d="M 194.85547,-1.0527344 V 143.96094 H 339.86914 V -1.0527344 Z m 33.52734,20.7031254 c 7.05343,1.47e-4 12.77134,5.718054 12.77149,12.771484 -1.5e-4,7.05343 -5.71806,12.771333 -12.77149,12.771484 -7.05347,-1.39e-4 -12.77133,-5.718043 -12.77148,-12.771484 1.5e-4,-7.053437 5.71801,-12.771345 12.77148,-12.771484 z m 69.82617,33.126953 c 18.90709,0.124762 20.9043,14.439834 20.9043,18.583984 v 51.896482 h -21.2793 l 0.10352,-37.439451 c 0,0 1.37694,-14.109375 -11.94336,-14.109375 -11.28083,0 -11.92695,11.636923 -11.94726,13.857422 -10e-6,0 -0.28321,34.266664 -0.28321,37.691404 H 252.48438 V 53.935547 h 21.27929 v 9.914062 h 0.0684 c 0.10469,-0.68386 2.07554,-11.194723 24.00391,-11.070312 0.12434,-9.98e-4 0.24983,-0.003 0.37304,-0.002 z m -80.46679,1.158203 h 21.27929 v 69.322263 h -21.27929 z"
       transform="matrix(0.26458333,0,0,0.26458333,75.316333,56.094251)" />
  </g>
</svg>
