<?xml version="1.0" encoding="UTF-8" standalone="no"?>
<!-- Created with Inkscape (http://www.inkscape.org/) -->

<svg
   width="38.393005mm"
   height="38.392487mm"
   viewBox="0 0 38.393005 38.392487"
   version="1.1"
   id="svg2673"
   inkscape:version="1.1.2 (0a00cf5339, 2022-02-04)"
   sodipodi:docname="linkedin-logo.svg"
   xmlns:inkscape="http://www.inkscape.org/namespaces/inkscape"
   xmlns:sodipodi="http://sodipodi.sourceforge.net/DTD/sodipodi-0.dtd"
   xmlns="http://www.w3.org/2000/svg"
   xmlns:svg="http://www.w3.org/2000/svg">
  <sodipodi:namedview
     id="namedview2675"
     pagecolor="#ffffff"
     bordercolor="#666666"
     borderopacity="1.0"
     inkscape:pageshadow="2"
     inkscape:pageopacity="0.0"
     inkscape:pagecheckerboard="0"
     inkscape:document-units="mm"
     showgrid="false"
     inkscape:zoom="2.7652076"
     inkscape:cx="-0.54245475"
     inkscape:cy="92.578944"
     inkscape:window-width="1856"
     inkscape:window-height="1011"
     inkscape:window-x="0"
     inkscape:window-y="0"
     inkscape:window-maximized="1"
     inkscape:current-layer="layer1" />
  <defs
     id="defs2670" />
  <g
     inkscape:label="Layer 1"
     inkscape:groupmode="layer"
     id="layer1"
     transform="translate(-75.316333,-56.094251)">
    <path
       id="rect2812"
       style="opacity:1;fill:#000000;stroke-width:2;fill-opacity:1"
       d="m 297.37891,212.00977 c -7.04637,0 -12.71875,5.67238 -12.71875,12.71875 v 119.66796 c 0,7.04637 5.67238,12.71875 12.71875,12.71875 h 119.66797 c 7.04636,0 12.7207,-5.67238 12.7207,-12.71875 V 224.72852 c 0,-7.04637 -5.67434,-12.71875 -12.7207,-12.71875 z m 19.61328,19.65039 c 7.05343,1.5e-4 12.77133,5.71805 12.77148,12.77148 -1.5e-4,7.05343 -5.71805,12.77133 -12.77148,12.77148 -7.05344,-1.4e-4 -12.77134,-5.71804 -12.77149,-12.77148 1.5e-4,-7.05344 5.71805,-12.77134 12.77149,-12.77148 z m 69.82617,33.12695 c 18.90711,0.12478 20.9043,14.43983 20.9043,18.58398 v 51.89649 h -21.2793 l 0.10352,-37.43946 c 0,0 1.37692,-14.10937 -11.94336,-14.10937 -11.28086,0 -11.92691,11.63692 -11.94727,13.85742 0,0 -0.2832,34.26667 -0.2832,37.69141 h -21.2793 v -69.32227 h 21.2793 v 9.91407 h 0.0684 c 0.10478,-0.68386 2.07555,-11.19473 24.0039,-11.07032 0.12439,-0.001 0.24995,-0.003 0.37305,-0.002 z m -80.4668,1.1582 h 21.2793 v 69.32227 h -21.2793 z"
       transform="scale(0.26458333)"
       sodipodi:nodetypes="sssssssssccccccccccsccccccccccccccc" />
  </g>
</svg>
