<?xml version="1.0" encoding="UTF-8" standalone="no"?>
<!-- Created with Inkscape (http://www.inkscape.org/) -->

<svg
   width="38.357864mm"
   height="38.357349mm"
   viewBox="0 0 38.357864 38.357349"
   version="1.1"
   id="svg4884"
   inkscape:version="1.1.2 (0a00cf5339, 2022-02-04)"
   sodipodi:docname="medium-logo.svg"
   xmlns:inkscape="http://www.inkscape.org/namespaces/inkscape"
   xmlns:sodipodi="http://sodipodi.sourceforge.net/DTD/sodipodi-0.dtd"
   xmlns="http://www.w3.org/2000/svg"
   xmlns:svg="http://www.w3.org/2000/svg">
  <sodipodi:namedview
     id="namedview4886"
     pagecolor="#ffffff"
     bordercolor="#666666"
     borderopacity="1.0"
     inkscape:pageshadow="2"
     inkscape:pageopacity="0.0"
     inkscape:pagecheckerboard="0"
     inkscape:document-units="mm"
     showgrid="false"
     inkscape:zoom="2.7652076"
     inkscape:cx="-61.297387"
     inkscape:cy="105.59786"
     inkscape:window-width="1856"
     inkscape:window-height="1011"
     inkscape:window-x="0"
     inkscape:window-y="0"
     inkscape:window-maximized="1"
     inkscape:current-layer="layer1" />
  <defs
     id="defs4881" />
  <g
     inkscape:label="Layer 1"
     inkscape:groupmode="layer"
     id="layer1"
     transform="translate(-128.77818,-71.732055)">
    <path
       id="rect1061"
       style="fill:#000000;stroke-width:1.88976"
       d="M 208.27539,-0.38671875 V 144.58594 H 353.25 v -36.59961 c -1.10997,0.23954 -2.24798,0.45007 -3.43555,0.61523 -16.63642,2.31224 -26.04846,-10.444798 -25.78125,-27.529294 0.27787,-17.763723 10.02009,-29.250428 23.75977,-29.314454 0.44319,-0.0019 0.89044,0.0074 1.3418,0.0293 1.41789,0.06872 2.78548,0.215399 4.11523,0.416016 V -0.38671875 Z M 238.21875,35.326172 h 23.0332 l 20.38282,47.759766 20.63867,-47.523438 21.60156,-0.236328 -0.33984,1.320312 c -3.51221,-0.132585 -4.60575,2.113183 -5.71485,4.34375 l 0.11914,6.865235 v 48.486328 l -0.0488,7.468753 c 0.3515,2.51545 3.81675,3.18922 4.26954,3.31054 0.45074,0.12057 1.86523,0.58008 1.86523,0.58008 v 1.16992 H 296.4043 l 0.38086,-1.21875 c 0,0 1.35785,-0.26355 2.5625,-0.95898 3.29559,-2.18939 2.68554,-6.26669 2.68554,-10.351563 l -0.17773,-49.775391 -25.42774,62.304684 h -4.08789 L 248.01953,47.957031 v 38.910157 c 0,13.817592 -1.91727,19.723812 5.18945,20.570312 v 1.43359 l -15.70703,-0.18164 v -1.43164 C 245.35766,105.92694 242.5,100.62564 242.5,86.867188 V 47.855469 c -0.0113,-2.975237 -0.0737,-6.709126 -2.3418,-10.742188 l -1.93945,-0.574219 z m 109.95117,20.169922 c -6.2753,0.04446 -8.20426,3.753877 -9.85937,10.464844 -1.09573,3.279874 -0.85157,3.083556 -0.85157,6.714843 l 13.48438,0.316407 c 0.9637,0.02256 1.69341,0.135528 2.30664,0.236328 v -16.3125 c -0.87095,-0.79352 -2.07478,-1.268922 -3.76562,-1.378907 -0.4582,-0.0298 -0.8961,-0.04398 -1.31446,-0.04102 z m -11.5039,20.677734 c 1.31232,8.698753 1.36944,17.961147 16.17578,21.115234 0,0 0.28952,0.01084 0.4082,0.01953 V 76.173828 Z"
       transform="matrix(0.26458333,0,0,0.26458333,73.671987,71.834374)" />
    <g
       aria-label="M"
       transform="matrix(1.0015932,0,0,0.99840933,42.508094,-0.19574188)"
       id="text7285"
       style="font-size:23.6164px;line-height:1.25;stroke-width:0.442808" />
    <g
       aria-label="e"
       transform="matrix(0.96711881,0,0,1.0339991,42.608097,-0.48128944)"
       id="text42910"
       style="font-size:26.2232px;line-height:1.25;opacity:0.601026;fill:#ffff00;stroke-width:0.65558" />
  </g>
</svg>
