<?xml version="1.0" encoding="UTF-8" standalone="no"?>
<!-- Created with Inkscape (http://www.inkscape.org/) -->

<svg
   width="38.33461mm"
   height="38.33461mm"
   viewBox="0 0 38.33461 38.33461"
   version="1.1"
   id="svg5"
   inkscape:version="1.1.2 (0a00cf5339, 2022-02-04)"
   sodipodi:docname="patreon-logo.svg"
   xmlns:inkscape="http://www.inkscape.org/namespaces/inkscape"
   xmlns:sodipodi="http://sodipodi.sourceforge.net/DTD/sodipodi-0.dtd"
   xmlns="http://www.w3.org/2000/svg"
   xmlns:svg="http://www.w3.org/2000/svg">
  <sodipodi:namedview
     id="namedview7"
     pagecolor="#ffffff"
     bordercolor="#666666"
     borderopacity="1.0"
     inkscape:pageshadow="2"
     inkscape:pageopacity="0.0"
     inkscape:pagecheckerboard="0"
     inkscape:document-units="mm"
     showgrid="false"
     inkscape:zoom="2.7652076"
     inkscape:cx="-70.699936"
     inkscape:cy="97.641855"
     inkscape:window-width="1856"
     inkscape:window-height="1011"
     inkscape:window-x="0"
     inkscape:window-y="0"
     inkscape:window-maximized="1"
     inkscape:current-layer="layer1" />
  <defs
     id="defs2" />
  <g
     inkscape:label="Layer 1"
     inkscape:groupmode="layer"
     id="layer1"
     transform="translate(-156.26695,-90.397066)">
    <path
       id="rect1085"
       style="fill:#000000;stroke-width:1.88976"
       d="M 211.91016,0.0546875 V 144.94141 H 356.79688 V 0.0546875 Z m 75.47265,25.6601565 c 16.91792,1.035409 29.43448,5.073252 34.79102,13.126953 4.89672,8.999962 6.79341,24.537509 -2.73047,35.253906 -4.12158,3.11195 -9.02058,5.692656 -15.23828,7.369141 -6.84076,1.304655 -9.34802,3.533821 -13.23828,5.46875 -6.26517,4.510677 -8.91521,13.631226 -12.69141,21.316406 -1.81262,4.31535 -5.23101,7.4137 -9.5625,9.82031 -5.4991,2.44849 -8.3483,0.58403 -11.75195,-0.37695 -5.56203,-3.7477 -10.06641,-9.78023 -13.01758,-23.025391 -1.25068,-10.334665 -1.80588,-20.728407 -1.22852,-31.21875 1.59224,-10.628372 2.48764,-16.751556 12.6543,-26.914063 6.75031,-6.436554 17.7336,-9.722972 32.01367,-10.820312 z"
       transform="matrix(0.26458333,0,0,0.26458333,100.19905,90.382597)" />
  </g>
</svg>
