<?xml version="1.0" encoding="UTF-8" standalone="no"?>
<!-- Created with Inkscape (http://www.inkscape.org/) -->

<svg
   width="38.32864mm"
   height="38.32822mm"
   viewBox="0 0 38.32864 38.32822"
   version="1.1"
   id="svg8536"
   inkscape:version="1.1.2 (0a00cf5339, 2022-02-04)"
   sodipodi:docname="pinterest-logo.svg"
   xmlns:inkscape="http://www.inkscape.org/namespaces/inkscape"
   xmlns:sodipodi="http://sodipodi.sourceforge.net/DTD/sodipodi-0.dtd"
   xmlns="http://www.w3.org/2000/svg"
   xmlns:svg="http://www.w3.org/2000/svg">
  <sodipodi:namedview
     id="namedview8538"
     pagecolor="#ffffff"
     bordercolor="#666666"
     borderopacity="1.0"
     inkscape:pageshadow="2"
     inkscape:pageopacity="0.0"
     inkscape:pagecheckerboard="0"
     inkscape:document-units="mm"
     showgrid="false"
     inkscape:zoom="3.9105941"
     inkscape:cx="80.166847"
     inkscape:cy="103.05339"
     inkscape:window-width="1856"
     inkscape:window-height="1011"
     inkscape:window-x="0"
     inkscape:window-y="0"
     inkscape:window-maximized="1"
     inkscape:current-layer="layer1" />
  <defs
     id="defs8533" />
  <g
     inkscape:label="Layer 1"
     inkscape:groupmode="layer"
     id="layer1"
     transform="translate(-125.66533,-55.640625)">
    <path
       id="path8675"
       style="opacity:1;fill:#000000;stroke-width:0.340698;fill-opacity:1"
       d="m 144.82944,55.640625 a 19.164214,19.164214 0 0 0 -19.16411,19.16411 19.164214,19.164214 0 0 0 12.36954,17.911894 c -0.2857,-1.691915 -0.18117,-3.269548 -0.10566,-4.855378 l 2.36356,-10.144681 c -0.7825,-1.65078 -0.89138,-3.398852 0.0452,-5.280174 0.61987,-1.632686 1.57184,-1.926082 2.57356,-2.046155 0.75965,-0.15379 1.56434,-0.116693 2.51182,1.489181 0.13331,0.716982 0.50046,0.815683 -0.20348,3.746646 -0.43827,1.501396 -1.1478,2.893287 -1.26135,4.525365 0.20541,0.753731 0.41759,1.50504 1.25048,2.008762 0.98453,0.737734 2.43988,0.599716 4.4371,-0.54654 1.5236,-1.59475 2.23966,-2.683914 2.79662,-5.75019 0.29997,-2.713451 -0.39669,-4.722723 -1.46353,-6.576738 -1.54896,-1.654309 -3.45214,-2.82483 -6.3276,-2.703131 -3.60633,0.243919 -5.02352,1.349454 -6.16586,2.570519 -1.16874,1.337112 -2.05477,2.845555 -2.08354,5.622359 0.2189,1.661899 0.44438,3.203538 1.58831,4.491451 l -0.74698,2.741394 c -1.24007,-0.251311 -2.1245,-1.310879 -2.83879,-2.218333 -0.96553,-1.622988 -1.62868,-3.491565 -1.55657,-5.958456 0.20818,-1.677698 0.53542,-3.355511 1.66527,-5.03321 1.11381,-1.628138 2.24857,-3.248836 4.83712,-4.33536 1.60831,-0.630827 3.44779,-1.363877 6.79805,-1.200909 1.98981,0.195537 4.08617,0.52691 6.79544,2.589216 2.38057,1.86089 3.48962,4.499994 3.79751,7.628946 0.1675,1.363633 0.0537,3.124668 -0.33436,4.507104 -0.54601,1.565256 -1.22418,3.111752 -2.55443,4.564933 -1.23491,1.440549 -2.79771,2.600881 -5.05538,3.167063 -1.27351,0.132467 -2.48548,0.113389 -3.58968,-0.170876 -1.05672,-0.418888 -1.81124,-1.006654 -2.43095,-1.67049 -0.61322,2.179172 -0.90585,4.36936 -1.87137,6.440646 -0.5326,0.985459 -1.04987,1.992725 -1.7118,2.794441 a 19.164214,19.164214 0 0 0 5.63584,0.85481 19.164214,19.164214 0 0 0 19.16455,-19.164109 19.164214,19.164214 0 0 0 -19.16455,-19.16411 z" />
  </g>
</svg>
