<?xml version="1.0" encoding="UTF-8" standalone="no"?>
<!-- Created with Inkscape (http://www.inkscape.org/) -->

<svg
   width="38.351147mm"
   height="38.351147mm"
   viewBox="0 0 38.351147 38.351146"
   version="1.1"
   id="svg8536"
   inkscape:version="1.1.2 (0a00cf5339, 2022-02-04)"
   sodipodi:docname="pinterest-logo.svg"
   xmlns:inkscape="http://www.inkscape.org/namespaces/inkscape"
   xmlns:sodipodi="http://sodipodi.sourceforge.net/DTD/sodipodi-0.dtd"
   xmlns="http://www.w3.org/2000/svg"
   xmlns:svg="http://www.w3.org/2000/svg">
  <sodipodi:namedview
     id="namedview8538"
     pagecolor="#ffffff"
     bordercolor="#666666"
     borderopacity="1.0"
     inkscape:pageshadow="2"
     inkscape:pageopacity="0.0"
     inkscape:pagecheckerboard="0"
     inkscape:document-units="mm"
     showgrid="false"
     inkscape:zoom="2.7652076"
     inkscape:cx="-82.63394"
     inkscape:cy="84.622941"
     inkscape:window-width="1856"
     inkscape:window-height="1011"
     inkscape:window-x="0"
     inkscape:window-y="0"
     inkscape:window-maximized="1"
     inkscape:current-layer="layer1" />
  <defs
     id="defs8533" />
  <g
     inkscape:label="Layer 1"
     inkscape:groupmode="layer"
     id="layer1"
     transform="translate(-175.33723,-59.080725)">
    <path
       id="rect1757"
       style="fill:#000000;stroke-width:1.88976"
       d="M 187.73633,13.001953 V 157.95117 H 332.68555 V 13.001953 Z m 72.96875,15.726563 c 1.41381,-0.02147 2.90744,0.0031 4.49023,0.08008 7.52054,0.739037 15.44384,1.992567 25.6836,9.787109 8.99743,7.033285 13.18788,17.008024 14.35156,28.833985 0.63307,5.153888 0.20301,11.808248 -1.26367,17.033203 -2.06363,5.915928 -4.62658,11.761561 -9.6543,17.253907 -4.66738,5.44458 -10.5745,9.8308 -19.10742,11.9707 -4.81327,0.50066 -9.39309,0.4279 -13.56641,-0.64648 -3.9939,-1.5832 -6.84529,-3.80547 -9.1875,-6.31446 -2.31768,8.23624 -3.42501,16.51527 -7.07422,24.34375 -2.01297,3.72457 -3.96696,7.53044 -6.46875,10.56055 -2.35774,1.08328 -3.92706,0.77604 -4.3789,-1.50195 -1.07981,-6.39465 -0.68575,-12.35592 -0.40039,-18.34961 l 8.93359,-38.341798 c -2.95733,-6.239172 -3.36991,-12.846523 0.16992,-19.957031 2.34282,-6.170782 5.94249,-7.280556 9.72852,-7.734375 2.87112,-0.581254 5.91116,-0.440539 9.49218,5.628906 0.50385,2.709853 1.89103,3.082501 -0.76953,14.160156 -1.65645,5.674568 -4.33646,10.935032 -4.76562,17.103516 0.77635,2.848747 1.57668,5.689926 4.72461,7.593746 3.72106,2.7883 9.22293,2.2659 16.77148,-2.066402 5.75853,-6.027402 8.46527,-10.143348 10.57032,-21.732422 1.13374,-10.255563 -1.50106,-17.850121 -5.53321,-24.857422 -5.85434,-6.252507 -13.04618,-10.676762 -23.91406,-10.216797 -13.63022,0.921899 -18.98718,5.099795 -23.30469,9.714844 -4.41732,5.053651 -7.76615,10.754993 -7.875,21.25 0.82734,6.281193 1.68039,12.10886 6.00391,16.976562 l -2.82422,10.361328 c -4.68692,-0.949836 -8.02884,-4.955018 -10.72852,-8.384765 -3.64924,-6.134128 -6.15531,-13.197802 -5.88281,-22.521485 0.78682,-6.340905 2.02267,-12.680574 6.29297,-19.021484 4.20968,-6.153592 8.49971,-12.280171 18.2832,-16.386719 5.31882,-2.086201 11.30651,-4.468829 21.20313,-4.61914 z"
       transform="matrix(0.26458333,0,0,0.26458333,125.66533,55.640625)" />
  </g>
</svg>
