<?xml version="1.0" encoding="UTF-8" standalone="no"?>
<!-- Created with Inkscape (http://www.inkscape.org/) -->

<svg
   width="37.540344mm"
   height="37.540344mm"
   viewBox="0 0 37.540345 37.540344"
   version="1.1"
   id="svg61420"
   inkscape:version="1.1.2 (0a00cf5339, 2022-02-04)"
   sodipodi:docname="quora-logo.svg"
   xmlns:inkscape="http://www.inkscape.org/namespaces/inkscape"
   xmlns:sodipodi="http://sodipodi.sourceforge.net/DTD/sodipodi-0.dtd"
   xmlns="http://www.w3.org/2000/svg"
   xmlns:svg="http://www.w3.org/2000/svg">
  <sodipodi:namedview
     id="namedview61422"
     pagecolor="#ffffff"
     bordercolor="#666666"
     borderopacity="1.0"
     inkscape:pageshadow="2"
     inkscape:pageopacity="0.0"
     inkscape:pagecheckerboard="0"
     inkscape:document-units="mm"
     showgrid="false"
     inkscape:zoom="2.7652076"
     inkscape:cx="-11.029913"
     inkscape:cy="103.78968"
     inkscape:window-width="1856"
     inkscape:window-height="1011"
     inkscape:window-x="0"
     inkscape:window-y="0"
     inkscape:window-maximized="1"
     inkscape:current-layer="layer1" />
  <defs
     id="defs61417" />
  <g
     inkscape:label="Layer 1"
     inkscape:groupmode="layer"
     id="layer1"
     transform="translate(-162.44151,-64.497792)">
    <path
       id="rect1061"
       style="fill:#000000;stroke-width:1.88976"
       d="M 194.85742,-0.03320312 V 141.85156 H 336.74219 V -0.03320312 Z M 263.41016,28.625 c 21.10722,-8.3e-5 38.21871,16.630675 38.21875,37.144531 -4e-5,11.911491 -5.77734,22.505678 -14.74805,29.302735 1.62055,2.076767 3.5176,4.029579 5.92187,5.759764 1.49246,0.26978 2.95638,0.30231 4.3711,-0.0977 1.95133,-0.964448 3.01566,-2.546796 3.57031,-4.919927 l 5.66406,-0.04492 c -0.1028,2.452203 -0.69974,5.124757 -1.35742,7.554687 -1.67599,5.09382 -5.76736,7.51934 -10.49219,9.24805 -4.20778,1.04759 -8.05136,0.76257 -11.54297,-0.79883 -3.01611,-1.42221 -5.83577,-3.20644 -7.84179,-6.49024 l -2.00977,-3.59375 c -3.1141,0.79663 -6.38245,1.22267 -9.7539,1.22266 -21.10727,8e-5 -38.21872,-16.628718 -38.21875,-37.142577 3e-5,-20.51386 17.11148,-37.144614 38.21875,-37.144531 z m 0,7.667969 c -15.5065,0.521038 -17.21991,10.61933 -19.94336,20.015625 -0.46636,6.304392 -0.34318,12.572851 0,18.830078 0,3.007514 2.30498,18.774228 19.94336,20.015625 2.05228,-0.144454 3.88925,-0.49356 5.54687,-0.988281 l -3.05078,-5.453125 c -1.98951,-2.777209 -4.40814,-4.926098 -7.49609,-6.097657 l -5.07422,-0.03516 -1.73438,-4.09375 c 1.67486,-1.293687 3.1709,-2.624797 7.08789,-3.443359 3.0056,-0.321222 6.01,-0.362479 9.01563,-0.117188 3.44715,1.058181 6.89423,2.119578 9.82226,5.460938 1.07913,1.47465 2.0378,3.004339 2.95899,4.548828 2.33858,-4.195034 2.86719,-8.390864 2.86719,-9.796875 0.34318,-6.257231 0.46639,-12.525683 0,-18.830078 -2.72346,-9.396291 -4.43694,-19.494598 -19.94336,-20.015625 z"
       transform="matrix(0.26458333,0,0,0.26458333,110.88548,64.506577)" />
  </g>
</svg>
