<?xml version="1.0" encoding="UTF-8" standalone="no"?>
<!-- Created with Inkscape (http://www.inkscape.org/) -->

<svg
   width="37.489861mm"
   height="37.489864mm"
   viewBox="0 0 37.489861 37.489864"
   version="1.1"
   id="svg61420"
   inkscape:version="1.1.2 (0a00cf5339, 2022-02-04)"
   sodipodi:docname="quora-logo.svg"
   xmlns:inkscape="http://www.inkscape.org/namespaces/inkscape"
   xmlns:sodipodi="http://sodipodi.sourceforge.net/DTD/sodipodi-0.dtd"
   xmlns="http://www.w3.org/2000/svg"
   xmlns:svg="http://www.w3.org/2000/svg">
  <sodipodi:namedview
     id="namedview61422"
     pagecolor="#ffffff"
     bordercolor="#666666"
     borderopacity="1.0"
     inkscape:pageshadow="2"
     inkscape:pageopacity="0.0"
     inkscape:pagecheckerboard="0"
     inkscape:document-units="mm"
     showgrid="false"
     inkscape:zoom="2.7652076"
     inkscape:cx="10.30664"
     inkscape:cy="132.72059"
     inkscape:window-width="1856"
     inkscape:window-height="1011"
     inkscape:window-x="0"
     inkscape:window-y="0"
     inkscape:window-maximized="1"
     inkscape:current-layer="layer1" />
  <defs
     id="defs61417" />
  <g
     inkscape:label="Layer 1"
     inkscape:groupmode="layer"
     id="layer1"
     transform="translate(-110.88548,-64.506577)">
    <path
       id="path61559"
       style="opacity:1;fill:#000000;stroke-width:0.333244"
       d="m 129.63023,64.506577 a 18.744915,18.744915 0 0 0 -18.74475,18.745107 18.744915,18.744915 0 0 0 18.74475,18.744756 18.744915,18.744915 0 0 0 18.74511,-18.744756 18.744915,18.744915 0 0 0 -18.74511,-18.745107 z m -0.65203,7.573936 c 5.58462,-2.2e-5 10.11187,4.399928 10.11188,9.827553 -1e-5,3.151582 -1.52837,5.954413 -3.90187,7.752801 0.42877,0.549478 0.93053,1.066484 1.56666,1.524263 0.39488,0.07138 0.78225,0.07982 1.15656,-0.02601 0.51629,-0.255173 0.79816,-0.673686 0.94491,-1.301577 l 1.49862,-0.01211 c -0.0272,0.648812 -0.18514,1.355942 -0.35915,1.998861 -0.44344,1.347741 -1.52621,1.989702 -2.77632,2.44709 -1.11331,0.277175 -2.13006,0.201833 -3.05388,-0.211288 -0.79802,-0.376293 -1.54399,-0.848545 -2.07475,-1.717383 L 131.5589,91.41174 c -0.82394,0.210774 -1.68867,0.323884 -2.5807,0.32388 -5.58463,2.1e-5 -10.11188,-4.399928 -10.11189,-9.827553 1e-5,-5.427626 4.52726,-9.827575 10.11189,-9.827553 z m 0,2.028433 c -4.10276,0.137858 -4.55592,2.809631 -5.2765,5.295734 -0.12339,1.668037 -0.0908,3.326985 0,4.982543 0,0.795738 0.60968,4.966926 5.2765,5.295379 0.543,-0.03822 1.02903,-0.130275 1.46761,-0.26117 l -0.80703,-1.442674 c -0.52639,-0.734803 -1.16652,-1.303366 -1.98354,-1.613341 l -1.34254,-0.0093 -0.45892,-1.083518 c 0.44314,-0.342288 0.83885,-0.694489 1.87522,-0.911067 0.79523,-0.08499 1.59056,-0.09554 2.3858,-0.03064 0.91206,0.279977 1.82381,0.560741 2.59852,1.444809 0.28552,0.390168 0.53906,0.794589 0.78279,1.203235 0.61875,-1.109936 0.75858,-2.219741 0.75858,-2.591748 0.0908,-1.655559 0.1234,-3.314506 0,-4.982544 -0.72058,-2.486102 -1.17375,-5.157878 -5.27649,-5.295733 z" />
  </g>
</svg>
