<?xml version="1.0" encoding="UTF-8" standalone="no"?>
<!-- Created with Inkscape (http://www.inkscape.org/) -->

<svg
   width="38.375393mm"
   height="38.375389mm"
   viewBox="0 0 38.375393 38.375389"
   version="1.1"
   id="svg5"
   inkscape:version="1.1.2 (0a00cf5339, 2022-02-04)"
   sodipodi:docname="reddit-logo.svg"
   xmlns:inkscape="http://www.inkscape.org/namespaces/inkscape"
   xmlns:sodipodi="http://sodipodi.sourceforge.net/DTD/sodipodi-0.dtd"
   xmlns="http://www.w3.org/2000/svg"
   xmlns:svg="http://www.w3.org/2000/svg">
  <sodipodi:namedview
     id="namedview7"
     pagecolor="#ffffff"
     bordercolor="#666666"
     borderopacity="1.0"
     inkscape:pageshadow="2"
     inkscape:pageopacity="0.0"
     inkscape:pagecheckerboard="0"
     inkscape:document-units="mm"
     showgrid="false"
     inkscape:zoom="3.9105941"
     inkscape:cx="125.42851"
     inkscape:cy="88.221889"
     inkscape:window-width="1856"
     inkscape:window-height="1011"
     inkscape:window-x="0"
     inkscape:window-y="0"
     inkscape:window-maximized="1"
     inkscape:current-layer="layer1" />
  <defs
     id="defs2" />
  <g
     inkscape:label="Layer 1"
     inkscape:groupmode="layer"
     id="layer1"
     transform="translate(-96.297636,-69.671199)">
    <path
       id="path7446"
       style="opacity:1;fill:#000000;stroke-width:0.466106"
       d="m 115.48534,69.671199 c -10.59705,5.1e-5 -19.18765,8.590648 -19.187704,19.1877 0.0053,5.076367 2.021508,9.943888 5.607824,13.536621 l -3.245434,3.09023 c -1.081694,1.07862 -0.458814,2.41292 1.068768,2.41292 h 13.482456 c 0.75444,0.0943 1.5138,0.14372 2.27409,0.14792 10.59705,-4e-5 19.18764,-8.590641 19.18769,-19.187691 -5e-5,-10.597052 -8.59064,-19.187649 -19.18769,-19.1877 z m 6.91147,5.815392 a 3.1580224,3.1580224 0 0 1 3.15804,3.158045 3.1580224,3.1580224 0 0 1 -3.15804,3.158048 3.1580224,3.1580224 0 0 1 -3.09387,-2.548105 c 0.30845,-0.07529 0.65348,-0.125629 1.0278,-0.125629 0.26453,-0.597522 0.20323,-0.957112 -0.38008,-1.209872 -0.22019,0.0032 -0.42861,0.01885 -0.62861,0.04506 a 3.1580224,3.1580224 0 0 1 3.07476,-2.47755 z m -3.28505,2.570408 c 0.48879,0.236923 0.36961,0.613823 0.14794,1.173911 -1.28466,0 -2.07836,0.885782 -2.07836,0.885782 0,0 -1.11474,0.930868 -1.11474,2.815295 l -0.47384,0.120624 c -0.22859,-0.01348 -0.48887,-0.153853 -0.48887,-0.153853 -0.10555,-1.670586 -0.0955,-2.619775 1.3701,-3.836266 0.89389,-0.697083 1.55653,-0.987894 2.63777,-1.005493 z m -4.18083,4.978314 c 0.005,0.102441 0.0115,0.206925 0.0191,0.313619 l 0.88715,0.04643 0.25854,-0.357317 c 0.0196,6.83e-4 0.0396,6.28e-4 0.0592,0.0014 0.0366,0.0013 0.0732,0.0029 0.10969,0.0046 0.17781,0.0078 0.35389,0.01831 0.52847,0.03141 0.0916,0.0067 0.18239,0.01463 0.27311,0.02276 0.10578,0.0097 0.21089,0.02029 0.31544,0.03186 2.34812,0.254887 4.37294,0.975925 6.00793,2.005071 0.79119,-0.566192 1.75028,-0.872116 2.73564,-0.872582 2.53668,2.6e-5 4.59307,1.982253 4.59323,4.427547 -5.7e-4,1.716353 -1.03005,3.277783 -2.64187,4.006958 8.8e-4,0.05862 0.003,0.117053 0.003,0.1757 0,0.154976 -0.005,0.308961 -0.0164,0.462009 -0.0108,0.153048 -0.0277,0.305156 -0.0491,0.456091 -0.0215,0.150934 -0.0478,0.300633 -0.0796,0.449262 -0.0319,0.148635 -0.0687,0.296299 -0.11062,0.442437 -0.0419,0.146139 -0.0889,0.290785 -0.14065,0.434243 -0.0518,0.143458 -0.10844,0.285459 -0.16978,0.426051 -0.0613,0.140586 -0.12737,0.279865 -0.198,0.417399 -0.0706,0.137536 -0.14565,0.273553 -0.22531,0.407842 -0.0796,0.134286 -0.16375,0.266974 -0.25218,0.397821 -0.0884,0.130865 -0.18116,0.259669 -0.27811,0.386905 -0.0969,0.127244 -0.19842,0.253009 -0.3036,0.376439 -0.10518,0.123405 -0.21412,0.244712 -0.32728,0.364144 -0.11317,0.119423 -0.23052,0.236608 -0.3514,0.351856 -0.12088,0.115248 -0.24537,0.22869 -0.3737,0.33956 -0.12833,0.110887 -0.2605,0.219599 -0.39601,0.325915 -0.13553,0.106316 -0.27451,0.210228 -0.41694,0.311796 -0.14244,0.101568 -0.28834,0.200609 -0.43743,0.297236 -0.1491,0.09663 -0.30152,0.190708 -0.45701,0.282208 -0.1555,0.09151 -0.31403,0.180553 -0.47567,0.266737 -0.16162,0.0862 -0.32636,0.16966 -0.49386,0.25035 -0.1675,0.0807 -0.33761,0.15851 -0.51071,0.23351 -0.1731,0.075 -0.34912,0.14709 -0.52756,0.21621 -0.17845,0.0691 -0.3595,0.1354 -0.54303,0.19846 -0.18352,0.0631 -0.36925,0.12299 -0.5576,0.17979 -0.18832,0.0568 -0.37927,0.11033 -0.57216,0.16069 -0.19288,0.0504 -0.38774,0.0974 -0.58491,0.1411 -0.19717,0.0437 -0.39646,0.0842 -0.59766,0.12108 -0.2012,0.0369 -0.40452,0.0702 -0.60948,0.10014 -0.20496,0.0299 -0.41151,0.0565 -0.61996,0.0792 -0.20846,0.0227 -0.41874,0.0416 -0.63043,0.0569 -0.21167,0.0153 -0.42487,0.0269 -0.63952,0.0346 -0.21466,0.008 -0.43082,0.0118 -0.64818,0.0118 -0.21735,0 -0.43352,-0.004 -0.64817,-0.0118 -0.21465,-0.008 -0.42786,-0.0193 -0.63954,-0.0346 -0.21169,-0.0153 -0.42198,-0.0342 -0.63043,-0.0569 -0.20845,-0.0227 -0.41499,-0.0493 -0.61995,-0.0792 -0.20495,-0.0299 -0.40829,-0.0632 -0.60949,-0.10014 -0.2012,-0.0369 -0.40048,-0.0773 -0.59765,-0.12108 -0.19718,-0.0437 -0.39201,-0.0907 -0.58491,-0.1411 -0.19288,-0.0504 -0.38382,-0.10388 -0.57216,-0.16069 -0.18834,-0.0568 -0.37407,-0.11673 -0.5576,-0.17979 -0.18352,-0.0631 -0.36459,-0.12934 -0.54303,-0.19846 -0.17845,-0.0691 -0.35444,-0.14121 -0.52755,-0.21621 -0.1731,-0.075 -0.34322,-0.15282 -0.51072,-0.23351 -0.1675,-0.0807 -0.33224,-0.16416 -0.49387,-0.25035 -0.16163,-0.08623 -0.32016,-0.175227 -0.47566,-0.266737 -0.1555,-0.0915 -0.30791,-0.185581 -0.457,-0.282208 -0.14911,-0.09663 -0.29499,-0.195668 -0.43743,-0.297236 -0.14245,-0.101568 -0.28143,-0.20548 -0.41694,-0.311796 -0.13552,-0.106316 -0.26769,-0.215028 -0.39601,-0.325915 -0.12833,-0.11087 -0.25283,-0.224312 -0.3737,-0.33956 -0.12088,-0.115248 -0.23825,-0.232433 -0.3514,-0.351856 -0.11316,-0.119432 -0.2221,-0.240739 -0.32728,-0.364144 -0.10517,-0.12343 -0.20666,-0.249195 -0.30361,-0.376439 -0.0969,-0.127236 -0.18968,-0.25604 -0.27811,-0.386905 -0.0884,-0.130847 -0.17251,-0.263535 -0.25217,-0.397821 -0.0796,-0.134289 -0.15469,-0.270306 -0.22532,-0.407842 -0.0706,-0.137534 -0.13667,-0.276813 -0.198,-0.417399 -0.0613,-0.140592 -0.11802,-0.282593 -0.16978,-0.426051 -0.0518,-0.143458 -0.0987,-0.288104 -0.14065,-0.434243 -0.0419,-0.146138 -0.0787,-0.293802 -0.11062,-0.442437 -0.0319,-0.148629 -0.059,-0.298328 -0.0806,-0.449262 -0.0215,-0.150935 -0.0378,-0.303043 -0.0487,-0.456091 -0.0108,-0.153048 -0.0164,-0.307033 -0.0164,-0.462009 0,-0.05853 0.002,-0.117195 0.003,-0.1757 -1.61181,-0.729175 -2.64141,-2.290605 -2.64187,-4.006958 1.6e-4,-2.445294 2.05656,-4.427521 4.59323,-4.427547 0.98485,0.0011 1.94325,0.307334 2.73381,0.873493 1.92706,-1.213424 4.39371,-2.001628 7.2961,-2.098839 0.0186,-7.83e-4 0.0373,-0.0012 0.056,-0.0019 z m -5.20773,5.559581 a 2.3640707,2.6425966 16.87523 0 0 -2.53171,2.62002 2.3640707,2.6425966 16.87523 0 0 2.2363,2.62048 2.3640707,2.6425966 16.87523 0 0 2.53217,-2.62048 2.3640707,2.6425966 16.87523 0 0 -2.23676,-2.62002 z m 11.51289,0 a 2.6425966,2.3640707 73.12477 0 0 -2.2363,2.62002 2.6425966,2.3640707 73.12477 0 0 2.53217,2.62048 2.6425966,2.3640707 73.12477 0 0 2.23631,-2.62048 2.6425966,2.3640707 73.12477 0 0 -2.53218,-2.62002 z m -5.76714,6.286049 c -1.54929,0.0017 -3.09314,0.07534 -4.67607,0.232598 0.53679,2.00334 2.12881,3.552031 4.71249,3.543126 2.58367,-0.0089 4.14088,-1.59172 4.67242,-3.575444 -1.60452,-0.131528 -3.15955,-0.201912 -4.70884,-0.20028 z" />
  </g>
</svg>
