<?xml version="1.0" encoding="UTF-8" standalone="no"?>
<!-- Created with Inkscape (http://www.inkscape.org/) -->

<svg
   width="38.319107mm"
   height="38.319107mm"
   viewBox="0 0 38.319107 38.319107"
   version="1.1"
   id="svg5"
   inkscape:version="1.1.2 (0a00cf5339, 2022-02-04)"
   sodipodi:docname="reddit-logo.svg"
   xmlns:inkscape="http://www.inkscape.org/namespaces/inkscape"
   xmlns:sodipodi="http://sodipodi.sourceforge.net/DTD/sodipodi-0.dtd"
   xmlns="http://www.w3.org/2000/svg"
   xmlns:svg="http://www.w3.org/2000/svg">
  <sodipodi:namedview
     id="namedview7"
     pagecolor="#ffffff"
     bordercolor="#666666"
     borderopacity="1.0"
     inkscape:pageshadow="2"
     inkscape:pageopacity="0.0"
     inkscape:pagecheckerboard="0"
     inkscape:document-units="mm"
     showgrid="false"
     inkscape:zoom="1.9552971"
     inkscape:cx="-41.170215"
     inkscape:cy="49.097399"
     inkscape:window-width="1856"
     inkscape:window-height="1011"
     inkscape:window-x="0"
     inkscape:window-y="0"
     inkscape:window-maximized="1"
     inkscape:current-layer="layer1" />
  <defs
     id="defs2" />
  <g
     inkscape:label="Layer 1"
     inkscape:groupmode="layer"
     id="layer1"
     transform="translate(-161.01048,-69.509969)">
    <path
       id="rect1272"
       style="fill:#000000;stroke-width:1.88976"
       d="M 244.58398,-0.609375 V 144.21875 H 389.41211 V -0.609375 Z m 98.53711,22.587891 a 11.935833,11.935833 0 0 1 11.93555,11.9375 11.935833,11.935833 0 0 1 -11.93555,11.935546 11.935833,11.935833 0 0 1 -11.69336,-9.630859 c 1.1658,-0.284572 2.47002,-0.474609 3.88477,-0.474609 0.9998,-2.258351 0.76714,-3.616952 -1.4375,-4.572266 -0.83221,0.01209 -1.61909,0.07086 -2.375,0.169922 a 11.935833,11.935833 0 0 1 11.62109,-9.365234 z m -12.41601,9.716796 c 1.84739,0.895458 1.3964,2.318679 0.55859,4.435547 -4.85541,0 -7.85547,3.347657 -7.85547,3.347657 0,0 -4.21289,3.518381 -4.21289,10.640625 l -1.79101,0.457031 c -0.86397,-0.05095 -1.84766,-0.582031 -1.84766,-0.582031 -0.39893,-6.314026 -0.36154,-9.902239 5.17774,-14.5 3.37846,-2.634645 5.88412,-3.732309 9.9707,-3.798829 z m -15.80274,18.814454 c 0.0189,0.387178 0.042,0.782296 0.0723,1.185546 l 3.35351,0.175782 0.97657,-1.351563 c 0.0741,0.0028 0.14858,0.0029 0.22265,0.0059 0.13852,0.0049 0.27611,0.01115 0.41407,0.01758 0.67203,0.02948 1.33821,0.06963 1.99804,0.11914 0.34621,0.02532 0.68845,0.05532 1.03125,0.08594 0.3998,0.03666 0.79821,0.07736 1.19336,0.121094 8.87479,0.963352 16.52754,3.688439 22.70703,7.578125 2.99033,-2.139939 6.61565,-3.297069 10.33985,-3.298828 9.58745,9.6e-5 17.35877,7.49232 17.35937,16.734374 -0.002,6.487004 -3.89245,12.388595 -9.98437,15.144532 0.004,0.221559 0.0117,0.442393 0.0117,0.664062 0,0.585736 -0.0175,1.167645 -0.0606,1.746094 -0.0408,0.578449 -0.10467,1.152193 -0.18555,1.722656 -0.0813,0.570459 -0.18059,1.137472 -0.30078,1.699219 -0.12053,0.56177 -0.25961,1.119542 -0.41797,1.671875 -0.15825,0.552336 -0.3378,1.098422 -0.5332,1.640625 -0.19578,0.542203 -0.40894,1.079961 -0.64063,1.611328 -0.23168,0.531353 -0.48121,1.056358 -0.74804,1.576172 -0.26684,0.519821 -0.55036,1.035411 -0.85156,1.542961 -0.30086,0.50755 -0.61902,1.00742 -0.95313,1.50196 -0.33411,0.4946 -0.68455,0.982 -1.05078,1.46289 -0.36624,0.48092 -0.75091,0.95731 -1.14844,1.42383 -0.39753,0.4664 -0.80864,0.9236 -1.23633,1.375 -0.42773,0.45135 -0.87125,0.89449 -1.32812,1.33007 -0.45687,0.43559 -0.92708,0.86417 -1.41211,1.28321 -0.48503,0.4191 -0.98588,0.83059 -1.49805,1.23242 -0.51224,0.40182 -1.03785,0.79385 -1.57617,1.17773 -0.53836,0.38388 -1.08885,0.75979 -1.65234,1.125 -0.56353,0.36522 -1.13889,0.72058 -1.72657,1.06641 -0.58771,0.34586 -1.1879,0.68205 -1.79882,1.00781 -0.61085,0.3258 -1.23412,0.64031 -1.86719,0.94531 -0.63307,0.30501 -1.27545,0.59935 -1.92969,0.88282 -0.65424,0.28346 -1.31972,0.55719 -1.99414,0.81836 -0.67446,0.26116 -1.35908,0.51151 -2.05273,0.75 -0.69362,0.23848 -1.39551,0.46305 -2.10743,0.67773 -0.71176,0.21468 -1.43307,0.41693 -2.16211,0.60742 -0.72899,0.19042 -1.46572,0.36804 -2.21093,0.53321 -0.74521,0.16531 -1.49737,0.31952 -2.25782,0.45898 -0.76044,0.13965 -1.53003,0.2659 -2.30468,0.37891 -0.77466,0.113 -1.55396,0.21303 -2.3418,0.29882 -0.78788,0.0858 -1.58276,0.15702 -2.38281,0.21485 -0.80005,0.0578 -1.6067,0.10062 -2.41797,0.13086 -0.81131,0.0299 -1.6277,0.0449 -2.44922,0.0449 -0.82148,0 -1.63798,-0.0147 -2.44922,-0.0449 -0.81131,-0.0302 -1.61792,-0.073 -2.41797,-0.13086 -0.80009,-0.0574 -1.59497,-0.12905 -2.38281,-0.21485 -0.78784,-0.0858 -1.5691,-0.18582 -2.34375,-0.29882 -0.77461,-0.1132 -1.54229,-0.23945 -2.30273,-0.37891 -0.76045,-0.13962 -1.51456,-0.29344 -2.25977,-0.45898 -0.74525,-0.16509 -1.47991,-0.34272 -2.20898,-0.53321 -0.729,-0.19049 -1.45219,-0.39274 -2.16407,-0.60742 -0.7118,-0.21468 -1.41376,-0.43925 -2.10742,-0.67773 -0.69362,-0.23849 -1.37831,-0.48884 -2.05273,-0.75 -0.67446,-0.26117 -1.33792,-0.5349 -1.99219,-0.81836 -0.65424,-0.28347 -1.29857,-0.57781 -1.93164,-0.88282 -0.63307,-0.305 -1.25435,-0.61951 -1.86524,-0.94531 -0.61088,-0.32591 -1.21111,-0.66195 -1.79882,-1.00781 -0.58772,-0.34583 -1.16308,-0.70119 -1.72657,-1.06641 -0.56356,-0.36521 -1.11594,-0.74112 -1.65429,-1.125 -0.5384,-0.38388 -1.06401,-0.77591 -1.57618,-1.17773 -0.51218,-0.40183 -1.0111,-0.81332 -1.49609,-1.23242 -0.48503,-0.41904 -0.95528,-0.84762 -1.41211,-1.28321 -0.45687,-0.43558 -0.90047,-0.87872 -1.32812,-1.33007 -0.42769,-0.4514 -0.8388,-0.9086 -1.23633,-1.375 -0.39753,-0.46652 -0.7822,-0.94291 -1.14844,-1.42383 -0.36623,-0.48089 -0.71667,-0.96829 -1.05078,-1.46289 -0.33411,-0.49454 -0.6519,-0.99441 -0.95313,-1.50196 -0.30083,-0.50755 -0.58472,-1.02314 -0.85156,-1.542961 -0.26683,-0.519814 -0.51636,-1.044819 -0.74804,-1.576172 -0.23169,-0.531367 -0.4468,-1.069125 -0.64258,-1.611328 -0.19563,-0.542203 -0.37251,-1.088289 -0.53125,-1.640625 -0.15829,-0.552333 -0.2974,-1.110105 -0.41797,-1.671875 -0.12057,-0.561747 -0.22305,-1.12876 -0.30469,-1.699219 -0.0813,-0.570463 -0.1424,-1.144207 -0.18359,-1.722656 -0.0397,-0.578449 -0.0625,-1.160358 -0.0625,-1.746094 0,-0.221215 0.008,-0.442922 0.0117,-0.664062 -6.09188,-2.755937 -9.98264,-8.657528 -9.98438,-15.144532 6.1e-4,-9.242054 7.77196,-16.734278 17.35938,-16.734374 3.72226,0.0042 7.34408,1.160967 10.33203,3.300781 7.28337,-4.58617 16.60651,-7.564233 27.57617,-7.931641 0.0695,-0.003 0.13906,-0.0052 0.20898,-0.0078 z M 295.2207,71.523438 a 8.9350702,9.9877665 16.87523 0 0 -9.56836,9.902343 8.9350702,9.9877665 16.87523 0 0 8.45118,9.904297 8.9350702,9.9877665 16.87523 0 0 9.57031,-9.904297 8.9350702,9.9877665 16.87523 0 0 -8.45313,-9.902343 z m 43.51368,0 a 9.9877665,8.9350702 73.12477 0 0 -8.45313,9.902343 9.9877665,8.9350702 73.12477 0 0 9.57031,9.904297 9.9877665,8.9350702 73.12477 0 0 8.45313,-9.904297 9.9877665,8.9350702 73.12477 0 0 -9.57031,-9.902343 z M 316.93555,95.28125 c -5.85563,0.0064 -11.68915,0.284545 -17.67188,0.878906 2.02881,7.571674 8.04546,13.424264 17.81055,13.390624 9.76505,-0.0336 15.65118,-6.01613 17.66016,-13.513671 -6.06433,-0.497113 -11.94329,-0.761906 -17.79883,-0.755859 z"
       transform="matrix(0.26458333,0,0,0.26458333,96.297636,69.671199)" />
  </g>
</svg>
