<?xml version="1.0" encoding="UTF-8" standalone="no"?>
<!-- Created with Inkscape (http://www.inkscape.org/) -->

<svg
   width="38.367168mm"
   height="38.367165mm"
   viewBox="0 0 38.367168 38.367165"
   version="1.1"
   id="svg59131"
   inkscape:version="1.1.2 (0a00cf5339, 2022-02-04)"
   sodipodi:docname="substack-logo.svg"
   xmlns:inkscape="http://www.inkscape.org/namespaces/inkscape"
   xmlns:sodipodi="http://sodipodi.sourceforge.net/DTD/sodipodi-0.dtd"
   xmlns="http://www.w3.org/2000/svg"
   xmlns:svg="http://www.w3.org/2000/svg">
  <sodipodi:namedview
     id="namedview59133"
     pagecolor="#ffffff"
     bordercolor="#666666"
     borderopacity="1.0"
     inkscape:pageshadow="2"
     inkscape:pageopacity="0.0"
     inkscape:pagecheckerboard="0"
     inkscape:document-units="mm"
     showgrid="false"
     inkscape:zoom="1.9552971"
     inkscape:cx="-90.779043"
     inkscape:cy="109.44628"
     inkscape:window-width="1856"
     inkscape:window-height="1011"
     inkscape:window-x="0"
     inkscape:window-y="0"
     inkscape:window-maximized="1"
     inkscape:current-layer="layer1" />
  <defs
     id="defs59128" />
  <g
     inkscape:label="Layer 1"
     inkscape:groupmode="layer"
     id="layer1"
     transform="translate(-123.42209,-45.874481)">
    <path
       id="rect1061"
       style="fill:#000000;stroke-width:1.88976"
       d="M 202.90625,0.38671875 V 145.39648 H 347.91602 V 0.38671875 Z M 249.75,40.746094 h 51.32422 c 1.11515,0 2.01172,0.898507 2.01172,2.013672 v 0.224609 2.521484 2.013672 H 301.07422 249.75 247.73633 v -2.013672 -2.521484 -0.224609 c 0,-1.115165 0.89848,-2.013672 2.01367,-2.013672 z m -2.01367,14.08789 h 55.34961 v 6.773438 h -55.34961 z m 0,14.117188 h 55.2832 v 34.187498 c -0.0469,1.25674 -0.96567,1.70438 -2.1543,1.89844 L 275.37695,88.167969 250.16211,105.03711 c -1.44722,-0.18244 -2.22581,-0.83697 -2.42578,-1.89844 z"
       transform="matrix(0.26458333,0,0,0.26458333,69.736482,45.772162)" />
  </g>
</svg>
