<?xml version="1.0" encoding="UTF-8" standalone="no"?>
<!-- Created with Inkscape (http://www.inkscape.org/) -->

<svg
   width="38.34288mm"
   height="38.34288mm"
   viewBox="0 0 38.34288 38.34288"
   version="1.1"
   id="svg19601"
   inkscape:version="1.1.2 (0a00cf5339, 2022-02-04)"
   sodipodi:docname="telegram-logo.svg"
   xmlns:inkscape="http://www.inkscape.org/namespaces/inkscape"
   xmlns:sodipodi="http://sodipodi.sourceforge.net/DTD/sodipodi-0.dtd"
   xmlns="http://www.w3.org/2000/svg"
   xmlns:svg="http://www.w3.org/2000/svg">
  <sodipodi:namedview
     id="namedview19603"
     pagecolor="#ffffff"
     bordercolor="#666666"
     borderopacity="1.0"
     inkscape:pageshadow="2"
     inkscape:pageopacity="0.0"
     inkscape:pagecheckerboard="0"
     inkscape:document-units="mm"
     showgrid="false"
     inkscape:zoom="2.7652076"
     inkscape:cx="-52.979747"
     inkscape:cy="108.85259"
     inkscape:window-width="1856"
     inkscape:window-height="1011"
     inkscape:window-x="0"
     inkscape:window-y="0"
     inkscape:window-maximized="1"
     inkscape:current-layer="layer1" />
  <defs
     id="defs19598" />
  <g
     inkscape:label="Layer 1"
     inkscape:groupmode="layer"
     id="layer1"
     transform="translate(-175.16212,-55.625741)">
    <path
       id="rect1061"
       style="fill:#000000;stroke-width:1.88976"
       d="M 207.57422,0.73632812 V 145.6543 H 352.49219 V 0.73632812 Z M 316.88086,40.740234 c 1.8254,-0.03402 2.88292,1.154203 2.40625,4.792969 l -13.13086,58.054687 c -1.85038,2.5837 -3.82495,2.26048 -5.81445,1.58008 L 283.61328,92.751953 272.34375,103.70508 c -2.14825,1.57592 -2.31368,0.65605 -2.81836,0.16211 l 1.54688,-19.708987 31.81835,-30.515625 c 1.19838,-1.406404 0.65544,-1.431342 -1.18164,-0.429687 l -41.35156,25.636718 -17.54687,-5.96289 c -2.077,-0.792057 -3.03575,-2.823133 -1.08203,-4.5 l 71.20507,-26.53125 c 1.48048,-0.635123 2.85204,-1.094825 3.94727,-1.115235 z"
       transform="matrix(0.26458333,0,0,0.26458333,120.24144,55.430921)" />
  </g>
</svg>
