<?xml version="1.0" encoding="UTF-8" standalone="no"?>
<!-- Created with Inkscape (http://www.inkscape.org/) -->

<svg
   width="38.313541mm"
   height="38.313545mm"
   viewBox="0 0 38.313541 38.313545"
   version="1.1"
   id="svg19601"
   inkscape:version="1.1.2 (0a00cf5339, 2022-02-04)"
   sodipodi:docname="telegram-logo.svg"
   xmlns:inkscape="http://www.inkscape.org/namespaces/inkscape"
   xmlns:sodipodi="http://sodipodi.sourceforge.net/DTD/sodipodi-0.dtd"
   xmlns="http://www.w3.org/2000/svg"
   xmlns:svg="http://www.w3.org/2000/svg">
  <sodipodi:namedview
     id="namedview19603"
     pagecolor="#ffffff"
     bordercolor="#666666"
     borderopacity="1.0"
     inkscape:pageshadow="2"
     inkscape:pageopacity="0.0"
     inkscape:pagecheckerboard="0"
     inkscape:document-units="mm"
     showgrid="false"
     inkscape:zoom="2.7652076"
     inkscape:cx="67.806843"
     inkscape:cy="167.4377"
     inkscape:window-width="1856"
     inkscape:window-height="1011"
     inkscape:window-x="0"
     inkscape:window-y="0"
     inkscape:window-maximized="1"
     inkscape:current-layer="layer1" />
  <defs
     id="defs19598" />
  <g
     inkscape:label="Layer 1"
     inkscape:groupmode="layer"
     id="layer1"
     transform="translate(-120.24144,-55.430921)">
    <path
       id="path19750"
       style="opacity:1;fill:#000000;stroke-width:0.340565"
       d="m 139.39821,55.430921 a 19.156773,19.156773 0 0 0 -19.15677,19.156773 19.156773,19.156773 0 0 0 19.15677,19.156774 19.156773,19.156773 0 0 0 19.15677,-19.156774 19.156773,19.156773 0 0 0 -19.15677,-19.156773 z m 8.83606,10.779011 c 0.48297,-0.009 0.76302,0.305381 0.6369,1.268139 l -3.4745,15.36034 c -0.48957,0.683604 -1.0118,0.598413 -1.53819,0.418389 l -4.42602,-3.285254 -2.98193,2.898127 c -0.56839,0.416966 -0.61212,0.173259 -0.74565,0.04257 l 0.40941,-5.214568 8.41866,-8.073781 c 0.31706,-0.372111 0.1731,-0.378764 -0.31296,-0.113743 l -10.94097,6.783028 -4.64253,-1.577442 c -0.54954,-0.209565 -0.80294,-0.746974 -0.28602,-1.190645 l 18.83949,-7.019827 c 0.39171,-0.168043 0.75453,-0.289912 1.04431,-0.295333 z" />
  </g>
</svg>
