<?xml version="1.0" encoding="UTF-8" standalone="no"?>
<!-- Created with Inkscape (http://www.inkscape.org/) -->

<svg
   width="33.77055mm"
   height="33.770546mm"
   viewBox="0 0 33.77055 33.770546"
   version="1.1"
   id="svg5"
   inkscape:version="1.1.2 (0a00cf5339, 2022-02-04)"
   sodipodi:docname="threads-logo.svg"
   xmlns:inkscape="http://www.inkscape.org/namespaces/inkscape"
   xmlns:sodipodi="http://sodipodi.sourceforge.net/DTD/sodipodi-0.dtd"
   xmlns="http://www.w3.org/2000/svg"
   xmlns:svg="http://www.w3.org/2000/svg">
  <sodipodi:namedview
     id="namedview7"
     pagecolor="#ffffff"
     bordercolor="#666666"
     borderopacity="1.0"
     inkscape:pageshadow="2"
     inkscape:pageopacity="0.0"
     inkscape:pagecheckerboard="0"
     inkscape:document-units="mm"
     showgrid="false"
     inkscape:zoom="2.7652076"
     inkscape:cx="-18.62428"
     inkscape:cy="78.475121"
     inkscape:window-width="1856"
     inkscape:window-height="1011"
     inkscape:window-x="0"
     inkscape:window-y="0"
     inkscape:window-maximized="1"
     inkscape:current-layer="layer1" />
  <defs
     id="defs2" />
  <g
     inkscape:label="Layer 1"
     inkscape:groupmode="layer"
     id="layer1"
     transform="translate(-148.42143,-69.52392)">
    <path
       id="rect1163"
       style="fill:#000000;stroke-width:1.88976"
       d="M 164.58203,-0.08398437 V 127.55273 H 292.21875 V -0.08398437 Z M 227.58984,17.302734 c 0.26759,-0.001 0.53761,-0.001 0.8086,0.002 34.67894,0.343254 40.58398,29.564453 40.58398,29.564453 l -8.85547,1.46289 c -5.14461,-12.93112 -11.35672,-21.096169 -30.53125,-21.855469 -19.17449,-0.759289 -34.03367,8.972921 -32.73828,39.78125 1.2954,30.808321 18.94683,34.485922 34.56641,34.957032 15.61961,0.47113 23.3299,-9.142562 24.70508,-18.933594 1.37522,-9.791029 -7.04102,-13.496094 -7.04102,-13.496094 3.36386,2.628238 -7.52952,20.757668 -20.30273,19.492188 -7.64115,-0.75704 -17.55075,-6.265893 -17.70118,-16.394532 -0.15042,-10.128655 9.25134,-14.902902 12.90625,-14.746093 0,0 14.77702,-0.467429 17.02735,-0.134766 2.25033,0.332674 -4.41464,-10.396561 -11.00391,-10.220703 -6.58926,0.175899 -10.99219,5.626953 -10.99219,5.626953 l -6.3125,-4.287109 c 0,0 4.3993,-9.779412 19.26172,-9.0625 14.86243,0.716919 18.20899,20.673828 18.20899,20.673828 -0.47532,0.36412 16.83131,2.47198 14.69531,24.042969 -2.62492,26.508693 -30.01499,26.245403 -29.99609,26.236333 0,0 -4.92238,0.6499 -14.97657,-0.7168 -19.47567,-2.64738 -31.69985,-24.698605 -32.06836,-42.375002 -0.36585,-17.538312 5.78717,-49.452906 39.75586,-49.615234 z m 7.65821,47.492188 c -3.46452,0.02264 -7.94906,0.133977 -10.35157,0.523437 -2.28287,0.317141 -6.04139,2.630991 -6.05273,7.125 -0.0113,4.494002 6.13118,6.980735 9.91797,7.208985 3.78678,0.228245 11.25976,-6.196001 11.25976,-14.837891 0,0 -0.6794,-0.01273 -1.76367,-0.01953 -0.81321,-0.0051 -1.85492,-0.0075 -3.00976,-10e-7 z"
       transform="matrix(0.26458333,0,0,0.26458333,104.87577,69.546141)" />
  </g>
</svg>
