<?xml version="1.0" encoding="UTF-8" standalone="no"?>
<!-- Created with Inkscape (http://www.inkscape.org/) -->

<svg
   width="33.753494mm"
   height="33.783466mm"
   viewBox="0 0 33.753494 33.783466"
   version="1.1"
   id="svg5"
   inkscape:version="1.1.2 (0a00cf5339, 2022-02-04)"
   sodipodi:docname="threads-logo.svg"
   xmlns:inkscape="http://www.inkscape.org/namespaces/inkscape"
   xmlns:sodipodi="http://sodipodi.sourceforge.net/DTD/sodipodi-0.dtd"
   xmlns="http://www.w3.org/2000/svg"
   xmlns:svg="http://www.w3.org/2000/svg">
  <sodipodi:namedview
     id="namedview7"
     pagecolor="#ffffff"
     bordercolor="#666666"
     borderopacity="1.0"
     inkscape:pageshadow="2"
     inkscape:pageopacity="0.0"
     inkscape:pagecheckerboard="0"
     inkscape:document-units="mm"
     showgrid="false"
     inkscape:zoom="2.7652076"
     inkscape:cx="1.2657277"
     inkscape:cy="78.47512"
     inkscape:window-width="1856"
     inkscape:window-height="1011"
     inkscape:window-x="0"
     inkscape:window-y="0"
     inkscape:window-maximized="1"
     inkscape:current-layer="layer1" />
  <defs
     id="defs2" />
  <g
     inkscape:label="Layer 1"
     inkscape:groupmode="layer"
     id="layer1"
     transform="translate(-104.87577,-69.546141)">
    <path
       id="rect1429"
       style="opacity:1;fill:#000000;fill-opacity:1;stroke-width:2"
       d="m 418.93555,262.85156 c -12.49543,0 -22.55469,10.05927 -22.55469,22.55469 v 82.57617 c 0,12.49543 10.05926,22.55469 22.55469,22.55469 h 82.46289 c 12.49542,0 22.55468,-10.05926 22.55468,-22.55469 v -82.57617 c 0,-12.49542 -10.05926,-22.55469 -22.55468,-22.55469 z m 40.375,17.30274 c 0.26744,-10e-4 0.5376,-10e-4 0.80859,0.002 34.67894,0.34327 40.58398,29.56445 40.58398,29.56445 l -8.85546,1.46289 c -5.14462,-12.93112 -11.35673,-21.09617 -30.53125,-21.85547 -19.17449,-0.75929 -34.03368,8.97293 -32.73829,39.78126 1.2954,30.80832 18.94683,34.48592 34.56641,34.95703 15.61962,0.47113 23.3299,-9.14257 24.70508,-18.9336 1.37522,-9.79103 -7.04102,-13.49609 -7.04102,-13.49609 3.36386,2.62824 -7.52951,20.75767 -20.30273,19.49219 -7.64115,-0.75704 -17.55075,-6.26589 -17.70117,-16.39453 -0.15047,-10.12866 9.25133,-14.90291 12.90625,-14.7461 0,0 14.77701,-0.46744 17.02734,-0.13476 2.25033,0.33267 -4.41464,-10.39657 -11.0039,-10.22071 -6.58927,0.17588 -10.99219,5.62696 -10.99219,5.62696 l -6.3125,-4.28711 c 0,0 4.39929,-9.77941 19.26172,-9.0625 14.86242,0.71692 18.20898,20.67382 18.20898,20.67382 -0.47531,0.36414 16.83131,2.47198 14.69531,24.04297 -2.62495,26.50869 -30.01499,26.2454 -29.99609,26.23633 0,0 -4.92238,0.6499 -14.97656,-0.7168 -19.47568,-2.64738 -31.69986,-24.6986 -32.06836,-42.375 -0.36582,-17.53831 5.78716,-49.4529 39.75586,-49.61523 z m 10.66797,47.49218 c -3.25286,-0.0205 -10.15798,0.004 -13.36133,0.52344 -2.28284,0.31714 -6.0414,2.63099 -6.05274,7.125 -0.01,4.494 6.13119,6.98074 9.91797,7.20899 3.78679,0.22825 11.25977,-6.196 11.25977,-14.83789 0,0 -0.67939,-0.0127 -1.76367,-0.0195 z"
       transform="scale(0.26458333)" />
  </g>
</svg>
