<?xml version="1.0" encoding="UTF-8" standalone="no"?>
<!-- Created with Inkscape (http://www.inkscape.org/) -->

<svg
   width="38.351147mm"
   height="38.351662mm"
   viewBox="0 0 38.351146 38.351661"
   version="1.1"
   id="svg13670"
   inkscape:version="1.1.2 (0a00cf5339, 2022-02-04)"
   sodipodi:docname="tiktok-logo.svg"
   xmlns:inkscape="http://www.inkscape.org/namespaces/inkscape"
   xmlns:sodipodi="http://sodipodi.sourceforge.net/DTD/sodipodi-0.dtd"
   xmlns="http://www.w3.org/2000/svg"
   xmlns:svg="http://www.w3.org/2000/svg">
  <sodipodi:namedview
     id="namedview13672"
     pagecolor="#ffffff"
     bordercolor="#666666"
     borderopacity="1.0"
     inkscape:pageshadow="2"
     inkscape:pageopacity="0.0"
     inkscape:pagecheckerboard="0"
     inkscape:document-units="mm"
     showgrid="false"
     inkscape:zoom="2.7652076"
     inkscape:cx="-7.7751848"
     inkscape:cy="70.157481"
     inkscape:window-width="1856"
     inkscape:window-height="1011"
     inkscape:window-x="0"
     inkscape:window-y="0"
     inkscape:window-maximized="1"
     inkscape:current-layer="layer1" />
  <defs
     id="defs13667" />
  <g
     inkscape:label="Layer 1"
     inkscape:groupmode="layer"
     id="layer1"
     transform="translate(-119.93826,-36.97673)">
    <path
       id="rect1062"
       style="fill:#000000;stroke-width:1.88976"
       d="M 171.67773,-0.95703125 V 143.99414 H 316.62695 V -0.95703125 Z M 245.2832,24.8125 h 16.87696 c 1.704,11.640624 8.52711,19.273924 22.61718,22.208984 v 17.898438 c -5.21726,-0.0641 -9.08304,-1.308508 -13.17578,-2.466797 -3.54217,-1.124803 -6.42158,-3.607534 -9.25195,-6.1875 V 95.8125 c -0.87575,4.41324 -3.64417,9.03694 -7.58399,13.08398 -2.65963,2.67805 -7.81129,6.72729 -14.86132,8.96875 -5.37797,0.49738 -10.42994,0.5201 -15.36914,-0.19335 -5.07727,-1.76253 -7.96631,-4.12872 -11.29297,-6.375 -3.62087,-3.33967 -7.20586,-7.51948 -8.68555,-12.941411 -1.23893,-5.522056 -1.49919,-11.425906 0,-18.019531 1.10914,-4.626826 3.52083,-8.754465 7.16406,-12.410157 3.44402,-3.384918 7.13985,-5.628818 13.37305,-7.720703 2.57552,-0.822898 7.18888,-0.864442 11.73047,0 v 16.507813 c -8.9449,-0.740837 -16.65286,3.292492 -17.23438,13.33789 0.3069,2.267876 1.58487,9.414281 11.0293,11.033199 5.0445,0.59462 10.07462,0.86265 14.66406,-8.468746 z"
       transform="matrix(0.26458333,0,0,0.26458333,74.515191,37.229945)" />
  </g>
</svg>
