<?xml version="1.0" encoding="UTF-8" standalone="no"?>
<!-- Created with Inkscape (http://www.inkscape.org/) -->

<svg
   width="38.339264mm"
   height="38.339779mm"
   viewBox="0 0 38.339264 38.339779"
   version="1.1"
   id="svg65010"
   inkscape:version="1.1.2 (0a00cf5339, 2022-02-04)"
   sodipodi:docname="twitch-logo.svg"
   xmlns:inkscape="http://www.inkscape.org/namespaces/inkscape"
   xmlns:sodipodi="http://sodipodi.sourceforge.net/DTD/sodipodi-0.dtd"
   xmlns="http://www.w3.org/2000/svg"
   xmlns:svg="http://www.w3.org/2000/svg">
  <sodipodi:namedview
     id="namedview65012"
     pagecolor="#ffffff"
     bordercolor="#666666"
     borderopacity="1.0"
     inkscape:pageshadow="2"
     inkscape:pageopacity="0.0"
     inkscape:pagecheckerboard="0"
     inkscape:document-units="mm"
     showgrid="false"
     inkscape:zoom="1.3826038"
     inkscape:cx="-265.80283"
     inkscape:cy="88.962579"
     inkscape:window-width="1856"
     inkscape:window-height="1011"
     inkscape:window-x="0"
     inkscape:window-y="0"
     inkscape:window-maximized="1"
     inkscape:current-layer="layer1" />
  <defs
     id="defs65007" />
  <g
     inkscape:label="Layer 1"
     inkscape:groupmode="layer"
     id="layer1"
     transform="translate(-119.71169,-11.590586)">
    <path
       id="rect1061"
       style="fill:#000000;stroke-width:1.88976"
       d="M 288.49414,0.49804688 V 145.4043 h 144.9043 V 0.49804688 Z M 341.33594,29.625 h 56.8789 V 68.539062 L 383.89648,83.216797 H 369.49805 L 356.95898,95.480469 V 83.216797 h -15.62304 z m -12.74219,10.107422 v 55.490234 h 19.12109 V 110.2168 l -6.19726,6.06054 V 99.423828 H 323.67773 V 43.501953 Z m 32.60742,2.318359 c -0.25927,0 -0.46875,0.207344 -0.46875,0.466797 v 20.488281 c 0,0.259427 0.20914,0.46875 0.46875,0.46875 h 6.16016 c 0.25927,-7e-6 0.46679,-0.209277 0.46679,-0.46875 V 42.517578 c 0,-0.259427 -0.20721,-0.466797 -0.46679,-0.466797 z m 19.40039,0 c -0.27326,0 -0.49218,0.207344 -0.49218,0.466797 v 20.488281 c -10e-6,0.259427 0.21885,0.46875 0.49218,0.46875 h 6.49024 c 0.27326,-7e-6 0.49218,-0.209277 0.49218,-0.46875 V 42.517578 c 0,-0.259427 -0.21889,-0.466797 -0.49218,-0.466797 z m 17.61328,35.207031 v 1.789063 l -19.67578,20.376953 h -19.77148 l 4.29687,-4.201172 h 17.62696 z"
       transform="matrix(0.26458333,0,0,0.26458333,43.38095,11.458811)" />
  </g>
</svg>
