<?xml version="1.0" encoding="UTF-8" standalone="no"?>
<!-- Created with Inkscape (http://www.inkscape.org/) -->

<svg
   width="38.326344mm"
   height="38.32634mm"
   viewBox="0 0 38.326343 38.32634"
   version="1.1"
   id="svg23723"
   inkscape:version="1.1.2 (0a00cf5339, 2022-02-04)"
   sodipodi:docname="whatsapp-logo.svg"
   xmlns:inkscape="http://www.inkscape.org/namespaces/inkscape"
   xmlns:sodipodi="http://sodipodi.sourceforge.net/DTD/sodipodi-0.dtd"
   xmlns="http://www.w3.org/2000/svg"
   xmlns:svg="http://www.w3.org/2000/svg">
  <sodipodi:namedview
     id="namedview23725"
     pagecolor="#ffffff"
     bordercolor="#666666"
     borderopacity="1.0"
     inkscape:pageshadow="2"
     inkscape:pageopacity="0.0"
     inkscape:pagecheckerboard="0"
     inkscape:document-units="mm"
     showgrid="false"
     inkscape:zoom="3.9105941"
     inkscape:cx="-19.817961"
     inkscape:cy="78.504696"
     inkscape:window-width="1856"
     inkscape:window-height="1011"
     inkscape:window-x="0"
     inkscape:window-y="0"
     inkscape:window-maximized="1"
     inkscape:current-layer="layer1"
     showguides="false" />
  <defs
     id="defs23720" />
  <g
     inkscape:label="Layer 1"
     inkscape:groupmode="layer"
     id="layer1"
     transform="translate(-100.92785,-96.548965)">
    <path
       id="rect1061"
       style="fill:#000000;stroke-width:1.88976"
       d="M 221.6582,-1.3652344 V 143.49023 H 366.51367 V -1.3652344 Z m 72.97071,19.6855464 c 28.77974,6.43e-4 52.10979,23.331587 52.10937,52.111329 4.2e-4,28.779702 -23.32963,52.110719 -52.10937,52.111329 -8.6044,-0.0113 -17.07186,-2.15455 -24.64649,-6.23633 l -28.54883,7.49805 7.99219,-26.062502 c -3.94382,-7.641412 -6.89569,-17.430333 -6.9082,-27.310547 -4.2e-4,-28.78046 23.33087,-52.111742 52.11133,-52.111329 z m -0.0957,9.388672 c -23.65818,-3.78e-4 -42.83827,19.175805 -42.83789,42.833985 0.0113,8.121789 3.76788,18.814317 7.00977,25.095703 l -4.08789,15.646488 16.97461,-4.18555 c 6.2265,3.35531 15.8684,6.2712 22.9414,6.28125 23.65758,-5.3e-4 42.83433,-19.180318 42.83399,-42.837891 3.4e-4,-23.657575 -19.17641,-42.833493 -42.83399,-42.833985 z m -16.49804,18.640625 c 0.79094,-0.0057 1.66008,0.05321 2.66015,0.220703 l 5.35157,13.271485 -4.22657,6.228515 c 3.73697,6.733909 7.05364,13.59531 19.45703,17.714844 l 6.56446,-6.789062 c 4.67085,1.531464 8.71943,3.630746 12.29101,6.166015 0.27515,1.758199 0.89759,3.295837 -0.21484,5.9375 -1.17309,2.046993 -2.52542,3.572529 -4.06055,4.5625 -3.6545,2.686148 -7.757,1.67487 -11.87695,1.851563 -18.1104,-6.270614 -29.67928,-17.124312 -35.57031,-32.548828 -0.52298,-4.107137 -0.0808,-6.501175 0.084,-9.384766 1.62633,-2.476157 3.38925,-4.848569 5.98828,-6.86914 1.13249,-0.163229 2.2345,-0.351776 3.55274,-0.361329 z"
       transform="matrix(0.26458333,0,0,0.26458333,42.280782,96.910183)" />
  </g>
</svg>
