<?xml version="1.0" encoding="UTF-8" standalone="no"?>
<!-- Created with Inkscape (http://www.inkscape.org/) -->

<svg
   width="38.34288mm"
   height="38.34288mm"
   viewBox="0 0 38.34288 38.34288"
   version="1.1"
   id="svg65494"
   inkscape:version="1.1.2 (0a00cf5339, 2022-02-04)"
   sodipodi:docname="youtube-logo.svg"
   xmlns:inkscape="http://www.inkscape.org/namespaces/inkscape"
   xmlns:sodipodi="http://sodipodi.sourceforge.net/DTD/sodipodi-0.dtd"
   xmlns="http://www.w3.org/2000/svg"
   xmlns:svg="http://www.w3.org/2000/svg">
  <sodipodi:namedview
     id="namedview65496"
     pagecolor="#ffffff"
     bordercolor="#666666"
     borderopacity="1.0"
     inkscape:pageshadow="2"
     inkscape:pageopacity="0.0"
     inkscape:pagecheckerboard="0"
     inkscape:document-units="mm"
     showgrid="false"
     inkscape:zoom="2.7652076"
     inkscape:cx="-19.709189"
     inkscape:cy="92.578943"
     inkscape:window-width="1856"
     inkscape:window-height="1011"
     inkscape:window-x="0"
     inkscape:window-y="0"
     inkscape:window-maximized="1"
     inkscape:current-layer="layer1" />
  <defs
     id="defs65491" />
  <g
     inkscape:label="Layer 1"
     inkscape:groupmode="layer"
     id="layer1"
     transform="translate(-168.67593,-129.33165)">
    <path
       id="rect1057"
       style="fill:#000000;stroke-width:1.88976"
       d="M 312.92773,0.04296875 V 144.96094 H 457.8457 V 0.04296875 Z M 385.7207,45.775391 c 8.46607,-0.02646 16.83495,0.251737 25.07618,0.908203 6.59869,0.603439 11.58481,3.457271 11.79492,12.980468 0.85035,8.317758 0.90788,16.852848 0,25.652344 -0.0151,10.298533 -5.53057,12.209105 -11.79492,12.980469 -17.34883,1.517178 -34.09961,0.934639 -50.74805,0 -5.95915,-0.964649 -11.84894,-2.048563 -11.95117,-12.980469 -0.82016,-8.590148 -0.71653,-17.13601 0,-25.652344 -0.008,-8.076092 3.72828,-12.635549 11.95117,-12.980468 8.64087,-0.555251 17.20581,-0.882881 25.67187,-0.908203 z m -7.23047,15.958984 c -0.29896,-0.01512 -0.47703,0.07714 -0.59375,0.222656 v 21.09961 c 0.0699,0.267212 0.29408,0.354335 0.59375,0.355468 l 18.625,-10.634765 c 0.0669,-0.176882 0.0813,-0.359828 0,-0.552735 z"
       transform="matrix(0.26458333,0,0,0.26458333,85.880474,129.32028)" />
  </g>
</svg>
